<?xml version="1.0" encoding="utf-8"?>
<svg width="36.379883px" height="36.380005px" viewBox="0 0 36.379883 36.380005" version="1.1" xmlns:xlink="http://www.w3.org/1999/xlink" xmlns="http://www.w3.org/2000/svg">
  <g id="Group-20">
    <path d="M34.38 0C35.4847 0 36.38 0.89528 36.38 2L36.38 34.38C36.38 35.4847 35.4847 36.38 34.38 36.38L2 36.38C0.89528 36.38 0 35.4847 0 34.38L0 2C0 0.89528 0.89528 0 2 0L34.38 0Z" id="Rectangle-2-Copy-13" fill="#000000" fill-opacity="0" stroke="none" />
    <path d="M20 18.62C20 15.8586 22.2386 13.62 25 13.62C27.7614 13.62 30 15.8586 30 18.62C30 21.3814 27.7614 23.62 25 23.62C22.2386 23.62 20 21.3814 20 18.62Z" id="Oval-2-Copy-3" fill="#000000" fill-rule="evenodd" stroke="none" />
    <path d="M6 18.62C6 15.8586 8.23858 13.62 11 13.62C13.7614 13.62 16 15.8586 16 18.62C16 21.3814 13.7614 23.62 11 23.62C8.23858 23.62 6 21.3814 6 18.62Z" id="Oval-Copy-3" fill="#000000" fill-rule="evenodd" stroke="none" />
  </g>
</svg>